HIERARCHY
ROOT Hips
{
	OFFSET 0.000000 0.000000 0.000000
	CHANNELS 6 Xposition Yposition Zposition Xrotation Yrotation Zrotation
	JOINT LeftUpLeg_virtual
	{
		OFFSET 0.000000 0.000000 0.000000
		CHANNELS 3 Xrotation Yrotation Zrotation
		JOINT LeftUpLeg
		{
			OFFSET 13.026900 -6.336304 -1.092800
			CHANNELS 3 Xrotation Yrotation Zrotation
			JOINT LeftLeg
			{
				OFFSET 0.524474 -46.096886 9.782700
				CHANNELS 3 Xrotation Yrotation Zrotation
				JOINT LeftFoot
				{
					OFFSET -0.524474 -53.427422 -12.948200
					CHANNELS 3 Xrotation Yrotation Zrotation
					JOINT LeftToeBase
					{
						OFFSET 0.192200 -14.009700 16.364100
						CHANNELS 3 Xrotation Yrotation Zrotation
						JOINT LeftToe_End
						{
							OFFSET -1.784700 -0.561700 9.474800
							CHANNELS 3 Xrotation Yrotation Zrotation
							End Site
							{
								OFFSET 0 0 0
							}
						}
					}
				}
			}
		}
	}
	JOINT RightUpLeg_virtual
	{
		OFFSET 0.000000 0.000000 0.000000
		CHANNELS 3 Xrotation Yrotation Zrotation
		JOINT RightUpLeg
		{
			OFFSET -12.883000 -6.336304 -1.092800
			CHANNELS 3 Xrotation Yrotation Zrotation
			JOINT RightLeg
			{
				OFFSET -0.524587 -46.096825 9.782800
				CHANNELS 3 Xrotation Yrotation Zrotation
				JOINT RightFoot
				{
					OFFSET 0.524587 -53.427383 -12.948300
					CHANNELS 3 Xrotation Yrotation Zrotation
					JOINT RightToeBase
					{
						OFFSET -0.192200 -14.009700 16.364100
						CHANNELS 3 Xrotation Yrotation Zrotation
						JOINT RightToe_End
						{
							OFFSET 1.784700 -0.561700 9.474800
							CHANNELS 3 Xrotation Yrotation Zrotation
							End Site
							{
								OFFSET 0 0 0
							}
						}
					}
				}
			}
		}
	}
	JOINT Spine_virtual
	{
		OFFSET 0.000000 0.000000 0.000000
		CHANNELS 3 Xrotation Yrotation Zrotation
		JOINT Spine
		{
			OFFSET 0.072000 7.257294 -0.789700
			CHANNELS 3 Xrotation Yrotation Zrotation
			JOINT Spine1
			{
				OFFSET 0.000000 12.508769 -0.658067
				CHANNELS 3 Xrotation Yrotation Zrotation
				JOINT Spine1_split
				{
					OFFSET 0.000000 12.508769 -0.658067
					CHANNELS 3 Xrotation Yrotation Zrotation
					JOINT Spine2
					{
						OFFSET 0.000000 12.508769 -0.658067
						CHANNELS 3 Xrotation Yrotation Zrotation
						JOINT Neck_virtual
						{
							OFFSET 0.000000 0.000000 0.000000
							CHANNELS 3 Xrotation Yrotation Zrotation
							JOINT Neck
							{
								OFFSET 0.000000 14.033295 7.520400
								CHANNELS 3 Xrotation Yrotation Zrotation
								JOINT Head
								{
									OFFSET 0.000000 8.198502 5.703100
									CHANNELS 3 Xrotation Yrotation Zrotation
									JOINT HeadTop_End
									{
										OFFSET 0.000000 17.760803 13.332701
										CHANNELS 3 Xrotation Yrotation Zrotation
										End Site
										{
											OFFSET 0 0 0
										}
									}
								}
							}
						}
						JOINT LeftShoulder_virtual
						{
							OFFSET 0.000000 0.000000 0.000000
							CHANNELS 3 Xrotation Yrotation Zrotation
							JOINT LeftShoulder
							{
								OFFSET 6.292450 5.785301 -0.669000
								CHANNELS 3 Xrotation Yrotation Zrotation
								JOINT LeftShoulder_split
								{
									OFFSET 6.292450 5.785301 -0.669000
									CHANNELS 3 Xrotation Yrotation Zrotation
									JOINT LeftArm
									{
										OFFSET 13.907140 -6.093903 1.965100
										CHANNELS 3 Xrotation Yrotation Zrotation
										JOINT LeftForeArm
										{
											OFFSET 34.140198 0.000000 0.000000
											CHANNELS 3 Xrotation Yrotation Zrotation
											JOINT LeftHand
											{
												OFFSET 40.960209 0.000000 0.000000
												CHANNELS 3 Xrotation Yrotation Zrotation
												End Site
												{
													OFFSET 0 0 0
												}
											}
										}
									}
								}
							}
						}
						JOINT RightShoulder_virtual
						{
							OFFSET 0.000000 0.000000 0.000000
							CHANNELS 3 Xrotation Yrotation Zrotation
							JOINT RightShoulder
							{
								OFFSET -6.292450 5.785301 -0.669000
								CHANNELS 3 Xrotation Yrotation Zrotation
								JOINT RightShoulder_split
								{
									OFFSET -6.292450 5.785301 -0.669000
									CHANNELS 3 Xrotation Yrotation Zrotation
									JOINT RightArm
									{
										OFFSET -13.907140 -6.093903 1.965100
										CHANNELS 3 Xrotation Yrotation Zrotation
										JOINT RightForeArm
										{
											OFFSET -34.140198 0.000000 0.000000
											CHANNELS 3 Xrotation Yrotation Zrotation
											JOINT RightHand
											{
												OFFSET -40.960209 0.000000 0.000000
												CHANNELS 3 Xrotation Yrotation Zrotation
												End Site
												{
													OFFSET 0 0 0
												}
											}
										}
									}
								}
							}
						}
					}
				}
			}
		}
	}
}
MOTION
Frames: 11
Frame Time: 0.03333333
5.521638 93.868645 40.128601 0.000000 0.000000 0.000000 11.334358 -1.162903 -6.567331 -80.789977 18.713190 15.548905 106.265866 -1.602672 0.801695 3.608715 4.612892 -3.972546 -1.275881 -0.244270 -0.392587 0.000000 0.000000 0.000000 7.387274 -9.301864 -5.028136 -25.112422 -9.206370 5.698890 38.530805 10.882260 -1.349928 -22.614782 -4.731711 -7.913492 -14.520938 0.314446 -0.696275 0.000000 0.000000 0.000000 9.439517 -7.758964 -5.854716 8.952966 3.056375 4.220118 5.795205 -0.431039 -1.240549 0.525426 2.067626 -0.811573 0.000000 0.000000 0.000000 3.490863 -0.010109 -1.980554 -0.189534 1.596388 -3.836510 -11.217528 12.230688 0.743325 0.000000 0.000000 0.000000 4.218590 -0.371262 -1.519508 -0.421620 -10.489817 -4.466159 1.080179 4.676101 -1.682885 10.224050 -9.326336 -50.627029 5.887728 -80.031867 6.252266 0.000000 0.000000 0.000000 3.961208 0.210580 -0.710097 3.070028 5.227647 13.649826 8.642760 -0.077239 -3.879833 -0.714935 29.314137 25.263094 165.076930 72.258996 -167.531645 0.000000 0.000000 0.000000 
3.888730 94.383980 52.465767 0.000000 0.000000 0.000000 9.462676 -3.264453 -7.680447 -84.219163 18.755182 18.317874 96.169487 -0.850473 -0.935382 2.764622 3.588016 -6.335932 -0.365508 -0.401909 0.527504 0.000000 0.000000 0.000000 6.811985 -10.953749 -6.003282 -18.396843 -8.143447 6.143866 41.597167 10.424696 -1.642105 -23.161071 -3.068053 -7.241997 -9.867060 0.486827 -0.649577 0.000000 0.000000 0.000000 9.796009 -6.715956 -7.030737 8.554273 3.747420 4.032663 5.731360 -0.567313 -1.404324 0.895683 2.798107 -0.925500 0.000000 0.000000 0.000000 2.629403 0.185710 -2.037541 -0.163981 1.174114 -3.766283 -11.442859 12.759184 1.733449 0.000000 0.000000 0.000000 3.960846 -0.067862 -1.481764 -0.336098 -7.598150 -4.682577 2.304565 5.803548 -2.350377 17.279397 -7.096170 -50.078684 2.235210 -79.049686 2.257017 0.000000 0.000000 0.000000 3.550652 0.262802 -0.923220 2.876375 4.427365 13.784125 7.000229 -2.993034 -3.077141 -3.374181 25.942703 28.831250 172.123062 70.652173 -174.777888 0.000000 0.000000 0.000000 
2.210333 94.866562 66.423889 0.000000 0.000000 0.000000 6.833828 -5.266370 -8.812339 -83.948626 17.159189 18.674946 83.238436 0.141737 -2.409103 0.119685 3.164184 -8.165741 0.361611 -0.625563 0.867891 0.000000 0.000000 0.000000 5.324208 -9.590802 -7.502001 -10.702467 -7.527467 7.339912 45.134795 9.148167 -2.157341 -21.851344 -1.169857 -7.185885 -8.440947 0.976505 -1.052963 0.000000 0.000000 0.000000 9.413152 -6.080447 -8.222449 7.973154 5.166137 3.836402 5.580843 -0.319664 -1.340716 0.695194 2.974521 -0.196133 0.000000 0.000000 0.000000 2.250636 0.620747 -1.903440 -0.494623 -0.057299 -3.493351 -11.240354 11.112130 2.506838 0.000000 0.000000 0.000000 3.809040 0.487148 -1.322666 -0.052158 -4.166342 -4.862615 3.178718 5.561615 -2.435560 23.138531 -3.688278 -50.539046 -3.657663 -78.504432 -4.039899 0.000000 0.000000 0.000000 3.332583 0.643477 -1.096965 2.603545 3.705584 14.792615 5.576029 -4.068825 -2.557893 -7.329805 19.105537 33.515615 -179.617596 71.296096 176.744395 0.000000 0.000000 0.000000 
1.210742 94.372421 80.115738 0.000000 0.000000 0.000000 3.292250 -5.987595 -9.538818 -79.368984 14.859575 16.674426 72.190489 1.493583 -3.474278 -3.534536 3.919910 -8.070685 1.234485 -0.835023 0.437370 0.000000 0.000000 0.000000 3.745917 -6.587125 -8.635475 -3.747017 -7.614735 8.890029 49.503312 7.247166 -2.562384 -18.018377 0.147928 -7.868862 -12.166864 1.605148 -1.845796 0.000000 0.000000 0.000000 6.700051 -5.003016 -9.063363 7.346852 6.868264 3.356989 5.288052 0.249015 -1.195327 0.609447 2.426387 0.555961 0.000000 0.000000 0.000000 2.184261 1.147421 -1.708620 -0.824102 -1.552891 -3.275532 -10.404285 7.635457 2.914233 0.000000 0.000000 0.000000 3.580656 1.130211 -1.197657 0.381668 -1.335486 -5.142847 3.759859 3.472254 -2.904398 25.975226 -0.730176 -51.377345 -9.445226 -77.974068 -10.029165 0.000000 0.000000 0.000000 3.331934 1.138053 -1.329252 2.352649 3.377590 16.531607 4.109588 -2.934200 -2.193452 -9.210907 11.960110 36.972159 -167.084664 76.120942 164.178131 0.000000 0.000000 0.000000 
0.842805 93.129044 93.697205 0.000000 0.000000 0.000000 -1.344441 -5.553328 -9.221272 -70.704472 12.592839 13.192872 65.293241 3.042077 -4.501119 -8.010229 5.337534 -5.563812 1.933325 -0.859223 -0.553718 0.000000 0.000000 0.000000 0.941648 -3.414891 -9.013752 -1.474023 -9.523647 9.055072 58.895089 6.134999 -2.584522 -8.367401 0.582116 -7.377641 -14.722145 2.043242 -2.308675 0.000000 0.000000 0.000000 1.718800 -2.908416 -8.904484 6.912770 8.164352 2.246131 4.880576 0.938679 -1.155477 0.217790 1.544597 0.968314 0.000000 0.000000 0.000000 2.101871 1.498959 -1.550804 -0.786414 -2.878116 -3.203730 -8.420919 3.178905 2.980638 0.000000 0.000000 0.000000 3.146097 1.591179 -1.223358 0.885762 -0.280098 -5.930167 4.047625 0.641994 -3.790172 24.481754 0.865613 -51.932677 -11.248636 -75.869974 -11.775362 0.000000 0.000000 0.000000 3.444995 1.528520 -1.598024 2.039101 3.837678 18.603420 3.002499 0.066286 -1.295496 -7.897212 8.021308 38.849788 -104.221399 84.407874 101.574202 0.000000 0.000000 0.000000 
0.969486 91.752632 105.229385 0.000000 0.000000 0.000000 -7.224558 -4.674862 -7.670991 -57.696910 10.460564 9.085379 62.142823 4.218757 -5.522495 -12.703946 6.371089 -1.283208 0.894822 -0.611092 -1.597725 0.000000 0.000000 0.000000 -4.931190 -0.320381 -8.479670 -6.814548 -13.376595 6.633093 73.723552 6.194107 -2.513282 5.713548 0.260590 -5.008316 -10.697966 2.037734 -2.050985 0.000000 0.000000 0.000000 -5.239153 -1.178414 -7.339856 6.740692 8.447698 0.329485 4.420633 1.369436 -1.257114 -0.348498 0.935724 0.763983 0.000000 0.000000 0.000000 1.725555 1.506416 -1.453161 -0.171295 -3.593083 -3.251671 -4.597180 -0.686352 3.033843 0.000000 0.000000 0.000000 2.556396 1.643489 -1.463721 1.289981 -1.752984 -7.370595 3.678753 -2.042141 -5.212092 18.607985 0.858931 -51.538261 -8.650911 -70.346844 -8.758899 0.000000 0.000000 0.000000 3.523442 1.612440 -1.874367 1.588786 5.263026 20.472621 2.169538 2.995968 -0.627631 -3.436042 10.395411 38.959245 -21.077750 71.959028 18.952716 0.000000 0.000000 0.000000 
1.283599 91.178680 115.392410 0.000000 0.000000 0.000000 -14.315764 -3.313278 -5.388455 -41.520109 8.714483 5.162639 59.817957 4.848923 -6.416996 -16.979905 6.372922 2.695652 -1.213790 -0.118207 -2.318187 0.000000 0.000000 0.000000 -12.550586 3.049173 -6.507079 -17.364260 -17.072727 2.059920 87.434604 5.903776 -2.174600 16.950192 -0.203195 -2.352025 -4.766015 1.708192 -1.619905 0.000000 0.000000 0.000000 -13.339091 0.161234 -5.098607 6.712882 7.463985 -2.106459 4.005004 1.255341 -1.394206 0.009103 -0.118507 -0.282077 0.000000 0.000000 0.000000 0.988451 1.059849 -1.388924 0.699495 -3.542398 -3.280913 1.164552 -3.014457 3.392150 0.000000 0.000000 0.000000 1.992721 1.171352 -1.737383 1.402155 -5.989792 -9.509642 2.761560 -3.253900 -6.251206 9.687541 -0.811478 -49.960358 -5.213109 -61.268634 -4.847025 0.000000 0.000000 0.000000 3.499539 1.280141 -2.082415 0.922067 7.414586 21.555708 0.639151 3.961765 -0.121126 3.247405 19.484967 36.456954 -9.683703 53.138848 8.067159 0.000000 0.000000 0.000000 
1.641694 92.768890 124.572479 0.000000 0.000000 0.000000 -21.766701 -2.932964 -3.379897 -23.121867 7.308014 2.401150 55.609563 4.615803 -7.018774 -19.185260 5.271555 4.245669 -2.974463 0.484376 -2.585794 0.000000 0.000000 0.000000 -20.081251 5.596067 -3.831391 -28.379421 -18.362415 -1.931462 95.662748 4.380931 -1.475251 21.317150 -0.774346 -0.487856 -1.779011 1.288110 -1.573910 0.000000 0.000000 0.000000 -20.962544 0.152039 -3.042014 6.492035 5.177986 -4.390496 3.755011 0.557672 -1.388194 0.471842 -1.455170 -1.151879 0.000000 0.000000 0.000000 -0.010020 0.142993 -1.229905 1.596170 -2.925127 -2.922112 8.577524 -3.335068 4.084985 0.000000 0.000000 0.000000 1.629869 0.260737 -1.786071 1.069677 -12.416254 -12.161080 1.427451 -2.582658 -6.987881 -0.110009 -3.284466 -47.244084 -3.181679 -50.221315 -2.401818 0.000000 0.000000 0.000000 3.346236 0.528847 -2.040873 0.067843 9.824385 21.391266 -0.876951 3.916913 -0.581888 9.282026 31.780846 31.625487 -5.892905 40.196862 4.509525 0.000000 0.000000 0.000000 
1.617999 96.980934 133.091232 0.000000 0.000000 0.000000 -28.476913 -3.277518 -2.408346 -4.434416 6.567323 1.246157 48.115336 4.413292 -7.322590 -19.034713 3.979363 3.824155 -3.503328 0.945456 -2.481855 0.000000 0.000000 0.000000 -26.712535 6.280905 -1.571441 -37.587368 -16.784734 -3.241060 97.938520 1.781001 -0.477778 21.652963 -1.325457 1.351943 0.748605 0.887696 -1.801979 0.000000 0.000000 0.000000 -27.633263 -0.959743 -2.025245 5.584202 1.918493 -5.788639 3.632533 -0.599414 -1.112335 1.009829 -2.337224 -0.964479 0.000000 0.000000 0.000000 -0.899752 -1.042963 -0.918317 2.693114 -1.768984 -1.951744 16.659636 -1.669526 4.607408 0.000000 0.000000 0.000000 1.458873 -0.912823 -1.490992 0.290230 -19.675460 -14.710706 0.052024 -0.539747 -7.296562 -8.038528 -5.901224 -43.386864 -2.471435 -40.849036 -1.421606 0.000000 0.000000 0.000000 2.960802 -0.553244 -1.720054 -0.690018 11.892369 19.552935 -1.520761 3.145403 -1.749692 11.515363 44.261460 26.555629 -4.471366 37.709270 2.977212 0.000000 0.000000 0.000000 
1.568079 103.691345 140.668427 0.000000 0.000000 0.000000 -33.577678 -4.248125 -2.587674 13.005418 7.157963 1.194584 37.202022 5.677108 -7.201803 -17.677264 3.311825 2.799557 -2.607744 1.167598 -2.069672 0.000000 0.000000 0.000000 -32.624323 4.258040 -0.888445 -45.535386 -13.114283 -1.266562 95.122836 -1.559816 0.648644 23.148887 -1.861735 4.451002 4.691526 0.463043 -1.891964 0.000000 0.000000 0.000000 -32.888269 -2.717946 -2.379958 3.863756 -1.746034 -6.001960 3.522048 -1.889298 -0.634775 1.931313 -2.882887 -0.391980 0.000000 0.000000 0.000000 -1.376460 -2.295567 -0.462556 4.005101 -0.244931 -0.564089 23.855742 1.228506 4.185443 0.000000 0.000000 0.000000 1.203868 -2.084408 -0.946144 -0.720977 -26.243286 -16.580139 -1.197661 1.595076 -5.971513 -12.988441 -8.117896 -38.668522 -2.526663 -36.813367 -1.520283 0.000000 0.000000 0.000000 2.264822 -1.778436 -1.178716 -1.107515 13.113442 16.064771 -1.307405 2.393090 -2.831078 3.347084 53.965427 28.367871 -3.996893 44.124709 2.133390 0.000000 0.000000 0.000000 
1.673037 111.893547 147.752075 0.000000 0.000000 0.000000 -37.516703 -5.715548 -3.925710 27.386726 8.906386 1.790996 24.597396 7.735693 -6.171005 -15.397114 3.351271 1.106801 -1.400643 1.149578 -1.347414 0.000000 0.000000 0.000000 -37.172536 0.715551 -1.954322 -51.688409 -8.412192 3.761068 87.494027 -4.765788 1.055146 27.492773 -1.702810 9.392868 6.390584 0.036546 -1.826176 0.000000 0.000000 0.000000 -37.001454 -5.211859 -3.948056 1.707843 -5.239793 -5.081886 3.402709 -3.041407 -0.137830 2.284289 -2.675048 0.411699 0.000000 0.000000 0.000000 -1.401834 -3.396538 0.086223 5.391496 1.414828 0.734373 29.087658 4.537472 2.600684 0.000000 0.000000 0.000000 0.763460 -3.054811 -0.438734 -1.391161 -30.861677 -16.705203 -2.040900 2.585154 -4.127411 -14.977806 -9.580400 -33.036829 -2.910092 -38.528346 -2.359019 0.000000 0.000000 0.000000 1.357427 -2.966034 -0.523461 -1.081161 13.231296 11.750660 -0.432507 2.811717 -3.938371 -19.676740 56.711942 42.433004 -3.863285 54.984584 1.746452 0.000000 0.000000 0.000000 
